<svg width="16" height="16" viewBox="0 0 16 16" fill="none" xmlns="http://www.w3.org/2000/svg">
<path d="M1.17647 2C0.526724 2 0 2.53726 0 3.2C0 3.86274 0.526724 4.4 1.17647 4.4H14.8235C15.4733 4.4 16 3.86274 16 3.2C16 2.53726 15.4733 2 14.8235 2H1.17647Z" fill="white"/>
<path d="M1.17647 6.8C0.526724 6.8 0 7.33726 0 8C0 8.66274 0.526724 9.2 1.17647 9.2H14.8235C15.4733 9.2 16 8.66274 16 8C16 7.33726 15.4733 6.8 14.8235 6.8H1.17647Z" fill="white"/>
<path d="M1.17647 11.6C0.526724 11.6 0 12.1373 0 12.8C0 13.4627 0.526724 14 1.17647 14H14.8235C15.4733 14 16 13.4627 16 12.8C16 12.1373 15.4733 11.6 14.8235 11.6H1.17647Z" fill="white"/>
</svg>
