<svg width="16" height="16" viewBox="0 0 16 16" fill="none" xmlns="http://www.w3.org/2000/svg">
<g clip-path="url(#clip0_1_1263)">
<path d="M9.5 6.01648C9.5 6.84719 8.82843 7.52061 8 7.52061C7.17157 7.52061 6.5 6.84719 6.5 6.01648C6.5 5.18578 7.17157 4.51236 8 4.51236C8.82843 4.51236 9.5 5.18578 9.5 6.01648Z" fill="#4D5061"/>
<path fill-rule="evenodd" clip-rule="evenodd" d="M8 0C12.5 0 14 3.00825 14 5.01374C14 8.53906 10.3378 13.5945 8.73568 15.6375C8.35661 16.1208 7.64339 16.1208 7.26432 15.6375C5.66217 13.5945 2 8.53906 2 5.01374C2 3.00825 3.5 0 8 0ZM8 9.02473C9.65685 9.02473 11 7.67789 11 6.01648C11 4.35508 9.65685 3.00824 8 3.00824C6.34315 3.00824 5 4.35508 5 6.01648C5 7.67789 6.34315 9.02473 8 9.02473Z" fill="#4D5061"/>
</g>
<defs>
<clipPath id="clip0_1_1263">
<rect width="16" height="16" fill="white"/>
</clipPath>
</defs>
</svg>
