<svg width="16" height="16" viewBox="0 0 16 16" fill="none" xmlns="http://www.w3.org/2000/svg">
<path fill-rule="evenodd" clip-rule="evenodd" d="M5.80776 1.33696C5.93736 0.565461 6.6101 0 7.39839 0H8.60159C9.38988 0 10.0626 0.56546 10.1922 1.33696L10.3515 2.28504C10.8782 2.49861 11.3686 2.78162 11.8111 3.1224L12.7191 2.78486C13.4573 2.51047 14.2872 2.80581 14.6814 3.48317L15.283 4.51705C15.6771 5.1944 15.52 6.05521 14.9114 6.55232L14.1632 7.16346C14.2006 7.43729 14.2199 7.71657 14.2199 8C14.2199 8.28328 14.2006 8.56241 14.1632 8.8361L14.9122 9.44791C15.5208 9.94501 15.678 10.8058 15.2839 11.4832L14.6823 12.5171C14.2881 13.1944 13.4582 13.4898 12.72 13.2154L11.8112 12.8775C11.3687 13.2183 10.8783 13.5014 10.3515 13.715L10.1922 14.663C10.0626 15.4345 9.38988 16 8.60159 16H7.39839C6.6101 16 5.93736 15.4345 5.80776 14.663L5.64851 13.715C5.1217 13.5014 4.63131 13.2183 4.18882 12.8775L3.27998 13.2154C2.5418 13.4897 1.71187 13.1944 1.31773 12.517L0.716125 11.4832C0.321982 10.8058 0.479159 9.945 1.08775 9.4479L1.83676 8.83609C1.79936 8.56241 1.78008 8.28328 1.78008 8C1.78008 7.71657 1.79938 7.4373 1.83682 7.16347L1.08862 6.55233C0.480024 6.05522 0.322848 5.19441 0.716991 4.51706L1.31859 3.48317C1.71274 2.80582 2.54266 2.51047 3.28085 2.78487L4.18891 3.12241C4.63138 2.78162 5.12174 2.49861 5.64851 2.28504L5.80776 1.33696ZM4.54449 8C4.54449 6.10645 6.09157 4.57143 7.99999 4.57143C9.90842 4.57143 11.4555 6.10645 11.4555 8C11.4555 9.89355 9.90842 11.4286 7.99999 11.4286C6.09157 11.4286 4.54449 9.89355 4.54449 8ZM7.99999 5.94286C6.85494 5.94286 5.92669 6.86387 5.92669 8C5.92669 9.13613 6.85494 10.0571 7.99999 10.0571C9.14505 10.0571 10.0733 9.13613 10.0733 8C10.0733 6.86387 9.14505 5.94286 7.99999 5.94286Z" fill="#DFE1EF"/>
</svg>
