<svg width="12" height="16" viewBox="0 0 12 16" fill="none" xmlns="http://www.w3.org/2000/svg">
<path fill-rule="evenodd" clip-rule="evenodd" d="M2.79167 16C1.52601 16 0.5 14.8807 0.5 13.5V2.5C0.5 1.11929 1.52601 0 2.79167 0H9.20833C10.474 0 11.5 1.11929 11.5 2.5V13.5C11.5 14.8807 10.474 16 9.20833 16H2.79167ZM2.33333 2.5C2.33333 2.22386 2.53854 2 2.79167 2H9.20833C9.46146 2 9.66667 2.22386 9.66667 2.5V11.5C9.66667 11.7761 9.46146 12 9.20833 12H2.79167C2.53854 12 2.33333 11.7761 2.33333 11.5V2.5ZM6 13C5.49374 13 5 13.4477 5 14C5 14.5523 5.49374 15 6 15C6.50626 15 7 14.5523 7 14C7 13.4477 6.50626 13 6 13Z" fill="#DFE1EF"/>
<path fill-rule="evenodd" clip-rule="evenodd" d="M8.863 4.47069C9.14679 4.74588 9.17235 5.21994 8.9201 5.52952L5.71176 9.46702C5.58597 9.62141 5.40738 9.71236 5.21811 9.71843C5.02885 9.72449 4.84567 9.64514 4.71178 9.49908L3.10761 7.74908C2.83913 7.45619 2.83913 6.98131 3.10761 6.68842C3.3761 6.39553 3.8114 6.39553 4.07989 6.68842L5.16848 7.87598L7.89241 4.53298C8.14466 4.22339 8.57921 4.1955 8.863 4.47069Z" fill="#DFE1EF"/>
</svg>
